<svg id="Layer_1" xmlns="http://www.w3.org/2000/svg" width="1287" height="1152" viewBox="0 0 1287.1 1152.1"><style>.a{fill:#F80;}</style><path d="M364 803.9c7.4 9 15.2 17.7 23.5 26 69.2 69.2 161.2 107.4 259.1 107.4 74.5 0 145.9-22.1 206.1-63.2 -0.6 0.1-1.9 0.2-1.9 0.4 0-2.1 0-4 0-6.4 -3-0.6-3.1-1.2-4.6-1.9 -1.3-0.6-2.6-1.1-4-1.8 -1.7 3.4-3.2 6.3-4.5 8.9 -2.9 1.4-4.4-0.1-5.3-2.1 -1.2-2.7-0.8-5.2 0.9-6.6 0.2-0.2 0.4-0.4 0.7-0.5 8.3-4 16.7-7.8 26.2-7.6 3.9 0.1 7.8 0.7 11.5-0.8 3.1-4.8 6-9.6 9.2-14.3 1.3-1.9 3.3-2.6 5.7-0.3 -0.6 1.8-1.2 3.7-1.8 5.7 0.2 0.7 0.5 1.5 0.7 2.1 6.9-6 13.7-12.2 20.2-18.8 0.3-0.3 0.6-0.6 0.9-0.9 -1-0.9-1.8-1.4-1.9-2.1 -0.1-0.7 1.2-2.1 1.9-2.2 0.8-0.1 2.1 0.9 2.4 1.8 0 0 0-0.1 0 0 7.1-7.2 13.8-14.6 20.2-22.6h-30.2c-3 3-6.1 6.7-9.3 9.9 -29.7 29.7-63.8 53.3-100.9 70.1 -0.5 0.7-1.1 1-1.9 0.9 -43.5 19.5-91.1 29.7-140.2 29.7 -91.8 0-178.1-35.9-243-100.8 -3.2-3.2-6.3-6.9-9.3-9.9H364zM826.6 880.9c0-0.2 0.4-0.3 0.6-0.4 0.2 0.5 0.3 1 0.5 1.4 -0.4 0.1-0.8 0.2-1.2 0.3C826.5 881.8 826.5 881.3 826.6 880.9zM782.9 897.6c0.7 0.1 1.9 0.6 2 1.1 0.5 2.2 0.8 4.4 1.2 7.4 -1.3 0.3-2.1 0.5-2.8 0.6 -0.5-0.2-0.9-0.4-0.9-0.5 -0.3-2.5-0.6-5-0.7-7.5C781.8 898.3 782.6 897.6 782.9 897.6zM752.8 900.7c0.5-0.6 1.2-1 1.8-1.5 0.4 0.6 0.9 1 0.9 1.4 -0.1 1.3-1 1.9-2.3 1.4C752.9 901.9 752.6 901 752.8 900.7zM748 919.4c0.5 0.4 0.4 2.4-0.1 3 -0.6 0.6-2.5 0.7-3 0.2 -1.8-1.9-3.2-4.1-5-6.5C744 914.9 745.9 917.6 748 919.4zM693.6 921.7c0.2 0.5 0.5 1 0.7 1.4 -0.4 0.2-0.8 0.4-1.1 0.6 -0.1-0.5-0.2-1-0.2-1.4C693 922 693.4 921.8 693.6 921.7zM654.6 931.8c0.5 0 1.6 1.2 1.5 1.6 -0.3 0.9-1 2.4-1.7 2.4 -1.9 0.1-4-0.2-4.4-3.5C651.5 932.1 653.1 931.7 654.6 931.8z" class="a"/><path d="M620.6 831.3l-29.9 4.3 21.6 21.1 -5.1 29.7 26.7-14 26.7 14 -5.1-29.7 21.6-21.1 -29.9-4.3 -13.4-27.1L620.6 831.3zM615.5 858.5c-0.6 0-1.2-1-1.7-1.5 0.4-0.3 0.9-0.5 1.5-0.9 0.6 0.3 1.3 0.6 2 1C616.7 857.5 616.1 858.5 615.5 858.5zM622.4 860c-0.2 0.4-0.8 0.5-1.3 0.7 -0.2-0.4-0.5-0.9-0.7-1.3 0.6-0.3 1.2-0.5 1.8-0.8C622.3 859.1 622.6 859.7 622.4 860z" class="a"/><path d="M465.4 920.9c-0.4-4.4-2-8.5-4.8-12.2 -2.8-3.8-6.5-7-11.2-9.8 -4.9-3-9.7-4.7-14.3-5.3 -4.7-0.6-9-0.1-13 1.6 -4 1.7-7.3 4.2-9.9 7.6 -2.6 3.4-6.5 9.4-11.8 18.2l-9 14.9c-3.6 6-6.4 10.8-8.4 14.5 2.5-0.9 4.9-2.1 7.3-3.2 5.6-2.5 11.7-2.3 17.3-4.1 1.1-0.3 2.4-0.1 3.5 0.2 1.9 0.5 3.9 0.9 5.8 1.2l14.2-23.6c2.7-4.5 4.6-7 5.8-7.5 1.2-0.5 2.4-0.4 3.5 0.3 1.4 0.8 2 2 1.7 3.4 -0.2 1.4-1.6 4.1-4 8.2l-11.8 19.6c1.9-0.2 3.8-0.4 5.6-0.8 0-0.1 0.1-0.2 0.1-0.3l0 0c0.1 0.1 0.2 0.1 0.3 0.1 1-1 1.9-2.3 3.1-3 2.2-1.2 3.2 0.1 3.8 2.8 -2.3 1.2-4.5 1.7-6.9 0.2 0 0 0 0.1-0.1 0.1 -0.1 0-0.2 0-0.3 0.1 -1.5 4.7-5 5.9-9.1 6.5l-3.7 6.1c1.6 0.1 3.1 0.5 4.4 1.7 1.5 1.4 2.2 2.9 1.6 4.8 -0.7 2.3-1.8 4.5-2.4 6.8 -0.4 1.4-0.6 3.1-0.2 4.3 3 8.1 0 13.9-6.9 18.2 -0.5 0.3-1.1 0.4-2.2 0.7 -4.3-1.5-8.8-4.2-14.1-3.5 -1.3 0.2-2.6 0.3-3.9 0.5 4.5 2.6 9 4.2 13.3 4.8 4.7 0.6 9 0.1 13-1.6 4-1.7 7.3-4.2 9.9-7.6 2.6-3.4 6.5-9.4 11.8-18.2l9-14.9c5.4-9 9-15.3 10.7-19.2C465.2 929.5 465.9 925.4 465.4 920.9zM391.9 942.4c-1.2 0.1-2.4-0.3-2.2-1.7 0-0.5 1.1-1.5 1.5-1.4 0.9 0.1 1.8 0.8 3.3 1.6C393.2 941.7 392.6 942.3 391.9 942.4zM442.9 942.9c-0.2-0.4-0.5-0.9-0.6-1.4 0-0.1 0.4-0.3 0.6-0.5 0.2 0.4 0.4 0.9 0.6 1.3C443.3 942.5 443.1 942.7 442.9 942.9zM448.1 945.2c-0.1-0.5-0.2-1.1-0.2-1.6 0-0.2 0.3-0.4 0.5-0.6 0.2 0.4 0.4 0.9 0.7 1.3C448.7 944.6 448.4 944.9 448.1 945.2z" class="a"/><path d="M452.6 508.1c-2.7 0-5 1-6.4 3.1 -1.4 2.1-2.4 8.2-2.4 18.5v92.8c0 11.5 0.7 18.7 1.6 21.4 0.9 2.7 3.2 4.1 6.7 4.1 3.5 0 6-1.6 7-4.7 1-3.1 1.7-10.5 1.7-22.2V529.7c0-9.2-0.7-15.2-1.7-17.7C458 509.4 455.8 508.1 452.6 508.1zM448.2 617.4c-0.2-0.5-0.5-1.1-0.5-1.6 0-0.3 0.8-0.4 1.3-0.7 0.2 0.5 0.5 1.1 0.7 1.6C449.2 617 448.7 617.2 448.2 617.4z" class="a"/><path d="M958.1 889.9c0.2-0.1 0.5-0.2 0.7-0.3 1.2-0.3 2.6 0.4 3.7 0.6 -0.2 1.7-0.4 3.2-0.5 4.7 1 1.3 2.1 2.6 3.1 4l-3.2-3.1c-0.2 1.8-0.4 3.5-0.6 5.2 -0.4 2.8-3.1 4.4-6 3.5 -0.3-0.1-0.6-0.2-0.8-0.3 -2.1-1.1-4.1-2.2-6.8-3.6 1.5-1.3 3.2-2.2 4.3-3.6 1.1-1.3 1.4-3.3 2.5-4.6 0.6-0.6 1.3-1.2 2.1-1.7l-19.4-18.7c-14.1-13.4-22.2-21.1-24.4-23.1l-16.4 14.7c0.4 1.7 1 3.2 2.9 4.2 3.6-2.2 2.5-6.1 3.8-9.3 2.2 0.6 4.2 1.2 6.1 1.8 1.4 0.4 2.8 1.6 4.1 1.5 6.1-0.8 8.6 3.1 10.6 7.7 0.7 1.6 1.5 3.3 2.3 4.9 -1.2 2.7-2.4 5.3-3.9 8.6 -2.2-1.5-4.3-2.9-6.7-4.6 -1.7 1.1-3.4 2.2-5.1 3.3 -0.5-0.1-1.2-0.1-1.6-0.4 -0.9-0.8-1.5-1.9-2.5-2.6 -2.9-2.2-4.7-2.6-7-1 13.1 19.1 24.4 34.6 33.8 46.4l-24.8-23.7 -25.7-24.6 -19.1 17.1 76.4 67.8 24.4-21.8c-15.1-22.7-25.1-37.5-30-44.6 15 13.3 28.8 24.8 41.4 34.4l24.6-22 -48.6-69c-0.3 0.2-0.6 0.5-0.8 0.7 -2 0.9-5.7-1.6-9.1 0.8 -1.6 1.2-5.5-1.4-6.5-3.5 1.8-2.2-0.5-3.7-1.3-5.9l-11.7 10.5C933.6 856.9 945.5 873.5 958.1 889.9zM920.9 893.4c-0.2 0.4-0.9 0.8-1.5 0.8 -1.7 0.1-2.6-1.1-2.8-2.6 -0.1-0.8 0.3-1.6 0.5-2.6 1 0.3 1.9 0.4 2.6 0.8C921 890.6 921.7 891.9 920.9 893.4zM940.7 931.2c0.8 0.2 1.5 0.7 2.7 1.3 -0.9 0.7-1.6 1.6-2.1 1.6 -0.6-0.1-1.2-0.9-1.6-1.6C939.6 932.2 940.5 931.1 940.7 931.2zM936 902.5c1 1.1 1.8 1.7 2.2 2.5 0.1 0.2-1 1.5-1.3 1.4 -0.9-0.3-1.7-0.9-2.4-1.6C934.4 904.7 935.2 903.7 936 902.5zM932.9 885.5c-0.7-0.7-1.5-1.4-2.1-2.2 -0.1-0.1 0.6-0.7 1.1-1.4 0.7 0.9 1.4 1.7 1.9 2.6C933.9 884.6 933.2 885.2 932.9 885.5zM942.6 894.4c-0.2 0.8-0.8 1.5-1.6 2.9 -1.3-0.9-2.1-1.2-2.6-1.9 -1.1-1.3-0.8-2.8 0.5-3.8 0.6-0.5 1.6-1 2.2-0.8C943 891.3 943 892.9 942.6 894.4zM979.7 908.5c0.3 0 0.6 0.7 0.8 1.1 -0.5 0.2-1 0.6-1.4 0.6 -0.3 0-0.6-0.7-0.8-1.1C978.8 908.8 979.3 908.4 979.7 908.5z" class="a"/><path d="M619.2 954.7l-15.4 38.2 3.7-39.3 -26.3-2.4 -0.6 6.1c2.2 0.8 4 2.3 5.7 4.3 -0.8 0.7-1.4 1.3-1.6 1.3 -1.4-0.7-3-1.1-4.5-1.6l-8.5 91 5.9 0.5c0.1-0.6 0.2-1.2 0.5-1.7 1-1.8 2.3-3.4 3.7-5.1 2.2-2.7 4.2-3.6 6.9-1.5 3.4 2.7 6.6 1.7 10 1.1 0.1 0 0.1 0 0.2 0l3.2-34.3 6.6 44.3 27.2 2.5 -11.3-57 19.3-44.2L619.2 954.7zM595.7 1032.5c-0.1-0.2-0.4-0.5-0.4-0.6 0.1-0.2 0.4-0.3 0.6-0.5 0.2 0.1 0.5 0.2 0.7 0.3C596.3 1031.9 596 1032.2 595.7 1032.5zM592.7 1001.9c-2.8-0.1-4.8-1.9-6.3-4.1 4.8-5.5 6.7-5.3 12.3 1.4C597.3 1001.4 595 1002 592.7 1001.9zM622.1 976.6c-0.4-0.3-0.8-0.5-1.1-0.8 0.2-0.2 0.4-0.6 0.5-0.6 0.4 0.2 0.8 0.5 1.2 0.8C622.5 976.2 622.3 976.4 622.1 976.6z" class="a"/><path d="M529.6 1022.9c1.4-3 3.1-7.7 5.3-14.1 -2.3-0.8-4.7-1.4-6.2-3.8 0.4-1.3 0.9-2.6 1.6-4.7 -4.8 1-9.5 2.5-13.6-1.8 2-3.3 5.3-4.1 7.9-6.2 1.8 0.7 3.5 1.3 5.1 2 1.6 0.7 3.2 2 4.9 2 1.5 0 2.9 0.3 4.3 0.6l3.6-11c3.3-9.9 5.3-17 6.1-21.1 0.8-4.1 0.5-8.3-0.9-12.5 -1.4-4.2-3.9-7.8-7.4-10.8 -3.6-3-7.9-5.4-13.1-7.1 -5.4-1.8-10.5-2.5-15.2-2 -4.7 0.4-8.8 1.9-12.3 4.5 -3.5 2.5-6.1 5.8-7.9 9.6 -1.8 3.9-4.3 10.7-7.4 20.4l-5.4 16.5c-3.3 9.9-5.3 17-6.1 21.1 -0.8 4.1-0.5 8.3 0.9 12.5 1.4 4.2 3.9 7.8 7.4 10.8s7.9 5.4 13.1 7.1c5.4 1.8 10.5 2.5 15.2 2 4.7-0.4 8.8-1.9 12.3-4.5C525.2 1030 527.8 1026.8 529.6 1022.9zM529.8 987.8c0.4 0.1 0.7 0.6 1 0.9 -0.2 0.2-0.4 0.6-0.6 0.5 -0.5-0.1-0.9-0.4-1.4-0.7C529.2 988.3 529.5 987.8 529.8 987.8zM521.3 989.7c0.2-2.3 0.4-3.6 0.6-5.6 1.6 1 2.5 1.6 4.1 2.5C524.4 987.7 523.3 988.4 521.3 989.7zM495.7 1015.8c-0.1 0.2-0.5 0.2-0.7 0.3 -0.1-0.2-0.3-0.4-0.4-0.6 0.4-0.2 0.7-0.3 1.1-0.5C495.6 1015.2 495.8 1015.6 495.7 1015.8zM506.8 980.5c-1.4 1.7-2.2 2.7-3.2 3.9 -2.6-1.8-4.8-3.3-7.3-5C500.4 976.9 502.9 980.2 506.8 980.5zM507.8 1006.9c-1.9 5.7-3.3 9.2-4.2 10.6 -1 1.4-2.3 1.8-4 1.2 -1.7-0.5-2.5-1.6-2.5-3 0-1.5 0.9-5 2.7-10.6l14.8-45c1.6-5 3-7.8 4-8.6 1-0.8 2.2-1 3.5-0.5 1.5 0.5 2.4 1.5 2.5 2.9 0.1 1.4-0.6 4.4-2.1 8.9L507.8 1006.9z" class="a"/><path d="M240 782.9h2C241.5 782.9 240.8 781.9 240 782.9z" class="a"/><path d="M1099 803.9c-24 46-55.1 89.3-92.6 126.8 -46.7 46.8-101.2 83.5-161.8 109.2 -1 0.4-1.9 0.8-2.9 1.2 1 2.9 0.8 6.2 1.9 8.9 0.4 1-0.7 2.7-1.3 4.6 -4.3-2.7-8.5-4.8-10.9-9.3 -26 10.2-52.7 18.1-79.8 23.8 0.4 1 0.8 2.1 1.3 3.3 -1.3 0.9-2.4 1.8-3.6 2.4 -2.9 1.6-5.9 1.4-8.2-0.7 -0.8-0.7-1.4-1.6-1.9-2.5 -5.2 0.9-10.3 1.8-15.5 2.6 0.2 1.1 0.1 2.3-0.6 3.8 -1.5-1.2-2.1-2.2-2.2-3.4 -24.4 3.6-49.2 5.4-74.3 5.4 -68.7 0-135.4-13.5-198.1-40 -9.1-3.8-18-7.9-26.8-12.3 0 0.4 0 0.8 0 1.1 -0.1 1.7-0.7 3.4-1.1 5.1 -3.5 1.3-6.3 2.2-9 3.3 -2.3 0.9-4.1 2-4.5 4.9 -0.2 1.6-2.1 2.4-3.5 1.4 -1-0.7-2.1-2.3-2-3.5 0.1-1.7 1.2-3.3 2-5.5 -0.9-2-2.1-4.4-3-6.8 -1.2-3.3 0.7-6.6 3.9-7.7 0.5-0.2 1-0.3 1.4-0.4 -43.7-23.5-83.7-53.2-119.2-88.7 -30.9-30.9-57.4-65.2-79.3-102.4 -0.1 0-0.2 0.1-0.4 0.1 -0.1 0-0.1-0.3-0.2-0.5 0.1 0 0.2-0.2 0.3-0.2 -4.6-7.8-8.9-15.9-13.1-23.9h-42.3c5.2 11 10.8 22.1 16.7 32.7 0.1-0.9 0.2-2 0.3-3.4 2.6 0.3 3.9 2.3 5.9 4.4 -1 1.5-1.5 2.5-2.3 3.4 -0.3 0.3-0.6 0.6-0.9 0.9 24.1 42.2 53.6 80.9 88.4 115.7 50.2 50.2 108.7 89.7 173.8 117.2 67.4 28.5 139.1 43 212.9 43 45.9 0 90.9-5.6 134.6-16.7 -2-1.5-3.4-2.4-4.5-3.6 -1.1-1.2-1.1-2.7 0.2-3.9 1.5-1.3 3.5-1.3 4.8 0.1 1.9 2.1 1.6 4.2-0.1 7.3 25-6.4 49.6-14.5 73.7-24.5 -0.6-0.5-1.1-1.2-1-1.3 0.7-1 1.6-1.9 2.8-3.2 0.8 1.2 1.6 1.8 1.5 2.4 0 0.3-0.1 0.5-0.1 0.7 0.3-0.1 0.7-0.3 1-0.4 65.1-27.5 123.6-67.1 173.8-117.3 44.9-44.9 81.2-96.6 108.1-153.6H1099zM360.2 1009.2c-1.2 0.3-2.9-2-2.2-3.1 0.7-1.1 2.1-2.3 3.2-2.3 1.1 0 2.2 1.3 4 2.6C363 1007.7 361.7 1008.8 360.2 1009.2zM394.3 1050.7c-0.3 0.1-0.9-0.5-1.4-0.7 0.4-0.7 0.9-1.3 1.3-2 0.6 0.5 1.1 0.8 1.5 1.2C395.3 1049.7 394.9 1050.4 394.3 1050.7zM458.7 1070.8c-2.6 0.5-5.3 0.9-7.3-2.1 3-4.4 7.1-4.5 12.1-3.1C462.9 1068.8 461.2 1070.3 458.7 1070.8zM528.1 1084c-3.5 2.8-7.1 5.3-11.8 8.6 -2.3-1.2-4.6-2.3-7.3-3.6 0.6-2.9 1-5.5 1.7-8 0.6-2 3.2-3.8 4.8-2.9 3.6 2 7.3 1.8 11.1 1.5 0.7-0.1 2 0.7 2.1 1.3C528.9 1081.8 528.8 1083.4 528.1 1084zM536.1 1091.6c-0.8-0.8-1.3-1.5-1.9-2.1 0.6-0.5 1.2-1.5 1.9-1.5 0.5 0 1.6 0.9 1.6 1.5C537.7 1090.1 536.8 1090.7 536.1 1091.6zM575.4 1102.8c-1.3-0.4-2.1-1.4-1.5-2.6 0.4-0.9 1.4-1.5 2.6-2.7 0.9 1.5 1.8 2.3 2.1 3.3C578.9 1102.2 577.1 1103.3 575.4 1102.8zM578 1109.4c-0.6-0.7-1.3-1.4-1.9-2.1 0.5-0.2 1-0.7 1.4-0.6 0.6 0.2 1.1 0.8 1.6 1.2C578.6 1108.6 578.3 1109 578 1109.4zM681.3 1111.9c-0.8 1.6-3.7 2.6-6.4 2.1 -2-0.4-3.2-1.8-3.3-3.7 0-0.9 0.8-2.4 1.6-2.7 2.7-1.1 5.9 0 7.9 2.6 0.2 0.2 0.2 0.6 0.2 0.9C681.4 1111.4 681.4 1111.7 681.3 1111.9zM854.2 1064.8c-0.6 1.3-1.8 2.3-2.9 3.4 -1.2 1.3-2.8 2.2-3.8 3.7 -0.7 1-0.6 2.6-0.9 4.4 -4.2-1.8-2.1-6.8-6.6-7.5 1.6-1.9 2.6-2.9 3.5-4.1 1.5 1 2.6 1.8 4 2.9 1.7-1.9 3.4-3.8 5.7-6.4C853.8 1062.9 854.6 1064.1 854.2 1064.8zM921.1 1026.2c-0.7-0.7-1.3-1.2-1.9-1.7 0.7-0.7 1.5-1.4 2.2-2.1 0.6 0.8 1.2 1.7 1.8 2.5C922.6 1025.3 921.9 1025.7 921.1 1026.2zM931.6 1026.8c-0.8-0.6-1.7-1.2-2.3-1.9 -0.1-0.2 0.8-1.2 2.1-3 0.5 1.3 1.1 2 1.1 2.8C932.5 1025.4 931.9 1026.1 931.6 1026.8zM1042.8 937.4c-0.7 0.5-1.5 0.9-2.3 1.2 -1.5 0.6-2.3 1.4-2.6 3.1 -0.3 1.6-1.3 3.2-2.1 4.7 -0.9 1.7-2.4 2.7-4.4 1.8 -2.6-1.1-4.1-3.4-2.7-5.5 1.7-2.5 0.6-4.2 0-6.5 -0.7-2.7-3-5.2-1.6-9.1 1.1 1.1 1.9 1.8 2.6 2.7 0.7 0.9 1.2 2 1.7 2.9 0.8 0 1.5 0.1 1.9-0.1 1.8-1 3.4-2.3 5.3-3.1 2.5-1.1 4.4-0.4 5.3 1.4C1045.1 933.5 1044.7 936 1042.8 937.4zM1056.1 884.4c-0.2-0.4-0.6-0.8-0.7-1.2 0-0.1 0.5-0.6 0.5-0.6 0.4 0.3 0.8 0.6 1.3 0.9C1056.8 883.8 1056.4 884.1 1056.1 884.4zM1082.7 841.7c-2.2-3.9-2.2-3.9 2.7-6.1C1086.6 838.3 1085 839.8 1082.7 841.7z" class="a"/><path d="M850.9 1011.8c4.7-0.4 9.4-1.7 14.3-4.2 5.1-2.6 9.2-5.7 12.2-9.3 3-3.6 4.9-7.6 5.5-11.8 0.7-4.3 0.3-8.4-1.2-12.4 -1.5-4-4.5-10.6-9.1-19.7l-7.8-15.5c-4.7-9.3-8.2-15.8-10.5-19.3s-5.5-6.3-9.4-8.3c-3.9-2-8.3-2.8-12.9-2.5 -4.7 0.4-9.4 1.7-14.3 4.2 -5.1 2.6-9.2 5.7-12.2 9.3 -3 3.6-4.8 7.6-5.5 11.8 -0.7 4.3-0.3 8.4 1.2 12.4 1.5 4 4.5 10.6 9.1 19.7l7.8 15.5c3.6 7.1 6.4 12.5 8.6 16.2 0.9 0 1.7 0 2.5 0.2 0.7 0.2 1.4 0.8 3.4 1.9 -1.4 0.5-2.7 0.9-3.9 1.2 2.3 3.4 5.4 6.1 9.3 8C841.9 1011.4 846.2 1012.2 850.9 1011.8zM868 968.3c0.4 0.1 0.6 0.8 0.9 1.2 -0.3 0.4-0.7 0.8-1 1.2 -0.5-0.6-1-1.2-1.5-1.8C867 968.7 867.6 968.2 868 968.3zM821.9 924.8c0.2 0.5 0.4 1 0.5 1.5 0 0.1-0.4 0.3-0.7 0.5 -0.2-0.5-0.4-1-0.6-1.5C821.1 925.2 821.6 925 821.9 924.8zM819.3 930.4c0.7 0.2 1.3 0.6 1.9 1 -0.4 0.8-0.7 1.2-0.9 1.7 -0.6-0.5-1.2-0.9-1.7-1.5C818.5 931.4 819.2 930.3 819.3 930.4zM810.1 920.6c0 0 0.2-0.3 0.2-0.3 0 0.1 0 0.3 0 0.4 1.6 1 3.6 1.7 3.5 4.2 -3.2-0.3-3.3-0.3-3.5-4.2C810.3 920.7 810.2 920.6 810.1 920.6zM814.7 951.3c-0.3 0-0.7-0.4-1-0.8 0 0 0.3-0.6 0.4-0.6 0.5 0.1 0.9 0.3 1.4 0.5C815.3 950.8 815 951.3 814.7 951.3zM815 939.8c0.5-0.3 1-0.8 1.5-0.7 0.5 0 0.9 0.6 1.4 0.9 -0.5 0.3-1 0.8-1.5 0.8C816 940.7 815.5 940.2 815 939.8zM821 969.3c-1 0.9-1.9 2-3.1 3.3 -0.3-5.1-0.4-5.2 2-9.6 1.5 0.8 3 1.6 5.3 2.8C823.4 967.3 822.1 968.2 821 969.3zM836.4 979.4c-1.6-0.8-3.2-1.7-2-4.4 1 0.1 2.2 0 3.2 0.4 0.9 0.4 1.9 1.3 2.3 2.2C840.3 978.4 837.6 979.9 836.4 979.4zM826.7 940.2c-2.3-4.7-3.4-7.6-3.2-8.9 0.2-1.3 0.9-2.2 2.1-2.8 1.5-0.7 2.7-0.6 3.8 0.3 1.1 0.9 2.6 3.5 4.8 7.7l20.9 41.7c2.7 5.3 4.2 8.8 4.4 10.5 0.3 1.6-0.4 2.9-2 3.7 -1.6 0.8-2.9 0.7-3.9-0.3 -1-1-2.9-4.2-5.5-9.4L826.7 940.2z" class="a"/><path d="M390.8 986.7c0.4-0.1 0.8-0.2 1.3-0.4 -0.7-3.6-4.2-3-6.6-4.5C387.1 983.6 388.9 985.2 390.8 986.7z" class="a"/><path d="M947 830.6l-5.3-7.5 -6.2 5.6C939.4 830.1 943.2 830.7 947 830.6z" class="a"/><path d="M383.7 979.6c0.4 0.5 0.8 1 1.2 1.5 -0.6-2.1 2.6-4.1 0.2-6.8 -2.5-2.7-1.8-6.1 1.4-8.6 2.6-2.1 4.7-4.5 4.3-8.6 -4.1-0.4-7.6 0.6-11.3 2 -0.4 1.8-0.7 3.6-0.7 5.5 0.1 0 0.1 0.1 0.2 0.1 0.7 0.4 1.1 1.3 1.9 2.3 -0.7 0.6-1.3 0.8-2 0.9C379.4 972.1 381 976 383.7 979.6z" class="a"/><path d="M287.7 900.3l22 21.2c7.6 7.4 13.1 11.8 16.4 13.3 3.3 1.5 6.7 1.6 10.1 0.3 3.4-1.3 7.5-4.4 12.3-9.4l6.5-6.8c4.6-4.8 7.2-9 7.9-12.9 0.7-3.8-0.7-8.3-4.2-13.6 4.8 2.9 8.7 4.1 11.7 3.7 0.5-0.1 1-0.2 1.5-0.4 -0.9-0.7-1.7-1.6-2.5-2.5 0.4-0.4 0.8-0.8 1.3-1.2 1.1 0.8 2.3 1.6 3.3 2.6 0.1 0.1 0.1 0.1 0.1 0.2 2.1-1.2 4.4-3.1 6.9-5.7 6.1-6.3 9.5-11.8 10.4-16.5 0.8-4.7 0.2-9-2-12.9 -2.2-3.9-6.3-8.7-12.3-14.5l-19-18.3L287.7 900.3zM338.1 898.4l-6.6 6.8c-2.8 3-5 4.4-6.5 4.5 -1.5 0-3.6-1.2-6.3-3.7l19.7-20.5c2.7 2.8 4.1 4.9 4.2 6.2C342.6 893.1 341.1 895.3 338.1 898.4zM369.2 852.2c6-1 9.8 1 12.1 6.5 0.5 1.1 0.7 2.3 1.1 3.5 -1.8 3.4-3.4 7-6.7 9.8 -2.9-1.4-5.7-2.8-8.5-4.2 -0.7 0.9-1.6 2-2.7 3.1 -4.2 4.3-7 6.7-8.4 7.1 -1.4 0.4-3-0.3-4.9-2.1 -0.5-0.4-1.1-1-1.9-1.8l13.5-14C363.5 855.3 365.6 852.8 369.2 852.2z" class="a"/><path d="M791 1036.2l-20.4-83.2c-2.6-1.3-4.9-3.2-6.8-5.9 0.9-0.8 1.8-1.6 2.8-2.5 0.9 0.5 1.7 1.3 2.4 2l-2.2-9 -21.4 5.2 10.9 44.4 -25.2-40.9 -21.4 5.2 24.1 98.6 21.4-5.2 -11-44.8 24.3 41.6L791 1036.2zM762.6 988.7c-0.1-0.1-0.1-0.4-0.2-0.6 0.2-0.1 0.5-0.2 0.7-0.2 0.1 0.3 0.2 0.7 0.2 1C763.1 988.8 762.8 988.8 762.6 988.7zM764.1 974.8c-0.2-0.5-0.6-0.9-0.7-1.4 0-0.1 0.4-0.4 0.6-0.6 0.3 0.5 0.6 1 0.8 1.4C764.5 974.5 764.3 974.6 764.1 974.8z" class="a"/><path d="M588.3 1052.3c-0.5 0.5-0.9 1-1.2 1.4l5.1 0.5c0.3-0.7 0.6-1.3 0.8-1.9C591.1 1050.1 589.7 1050.6 588.3 1052.3z" class="a"/><path d="M598.2 1053.3c-0.5-0.3-1.3-0.3-2.6 0 0.6 0.5 1.1 0.9 1.5 1.4l0.9 0.1L598.2 1053.3z" class="a"/><path d="M397.1 958c-2.3 3.4-5 7.3-7.6 11.2 1.9 6.1 3.9 11.6 7.8 16 3.9 0.3 7.5 0.6 11.1 0.7 2.1 0.1 4.2-0.1 6.2-0.5 2.1-0.4 3.4-2.7 2.8-4.8 -0.6-2.3-1.5-4.5-2.2-6.4 1.7-4.3 3.2-8.2 4.7-12.1 0.1-0.3-0.5-0.9-0.8-1.3 -1 0.4-1.9 0.7-2.9 1.1l-1.9 3.1c-3.1 5.1-5.3 8.2-6.5 9.3 -1.2 1.1-2.6 1.2-4.2 0.3 -1.5-0.9-2.1-2.1-1.8-3.5 0.3-1.4 2-4.7 5-9.7l1.1-1.8c-0.3 0.1-0.6 0.2-0.9 0.3C404.1 959.2 401.5 956.5 397.1 958z" class="a"/><path d="M315.2 508.1c-2.7 0-5.3 1-6.7 3.1 -1.4 2.1-2.7 8.2-2.7 18.5v92.8c0 11.5 1 18.7 2 21.4 0.9 2.7 3.4 4.1 6.8 4.1 3.5 0 5.8-1.6 6.7-4.7 1-3.1 1.5-10.5 1.5-22.2V529.7c0-9.2-0.4-15.2-1.4-17.7C320.3 509.4 318.4 508.1 315.2 508.1zM311.8 522.1c-0.2-0.2 0.7-1.6 1.3-1.8 1.6-0.5 2.8 0.8 2.8 3 -0.5 0.3-1.3 1.1-1.7 1C313.3 523.8 312.4 523 311.8 522.1zM319.4 616.5c-0.8 0.6-1.9 1.1-2.9 1.1 -0.5 0-1.1-0.9-2.3-2.1 2-0.6 3.3-1 4.5-1.2C318.8 614.3 319.6 616.3 319.4 616.5z" class="a"/><path d="M905.9 585.5c-2.4 4.6-6.1 2.2-9.1 2.8v34.3c0 11.5 0.6 18.7 1.6 21.4 0.9 2.7 3.2 4.1 6.6 4.1 3.5 0 5.6-1.6 6.5-4.7 1-3.1 1.3-10.5 1.3-22.2v-35.9C910.7 583.2 907.2 582.9 905.9 585.5z" class="a"/><path d="M376.4 297.6c7.5-7.5 12.1-12.8 13.7-16.1 1.6-3.3 1.8-6.6 0.6-10.1 -1.2-3.5-4.2-7.6-9.1-12.5l-6.6-6.7c-4.6-4.7-8.9-7.4-12.7-8.2 -3.8-0.7-8.3 0.5-13.7 3.9 3-4.7 4.4-8.6 4-11.6 -0.3-3-2.6-6.6-6.7-10.8 -6.2-6.2-11.6-9.8-16.2-10.8 -4.6-1-8.9-0.4-12.9 1.7 -4 2.1-8.9 6.1-14.8 11.9l-18.7 18.5 51.5 52c0.2-0.1 0.4-0.3 0.6-0.4 4.1 2.2 7.4 4 10.8 5.9 -0.3 1.8-0.7 3.3-1.4 4.6l9.9 10L376.4 297.6zM327.7 276.9c-1.8 0-4 0-6 0 0-2 0-3 0-5.1 -2 0.3-3.7 0.6-5.4 0.9 -1.1-1.6-0.4-3.1 0.8-3.8 1.4-0.8 3.7-1.6 4.9-1C325.4 269.4 329 270.9 327.7 276.9zM314.3 240.8c2-1.9 3.4-3 4.3-3.5 0.9-0.4 2-0.4 3.3 0.1 1.3 0.5 3.1 1.9 5.3 4.1 4.2 4.3 6.5 7.1 6.9 8.5 0.4 1.4-0.3 3-2.2 4.8 -0.4 0.4-1.1 1.1-1.8 1.9L314.3 240.8zM336 283.1c1.1 2.5 2.3 5.1 3.5 7.8 -1.1 0.2-1.8 0.6-2.2 0.4 -4.1-1.8-6.2-5.7-5.4-9.4 0.9-4.1 1.3-7.9 0.4-12.1 4.2-1.2 5.4 2.7 8.1 3.5 2.4 0.7 5.5-1 7.3 2.1C339.8 276.8 339.8 276.8 336 283.1zM352.4 303.9c-0.4-7.3 1.9-13.7 4.8-19.6l-16-16.2c2.9-2.7 5-4 6.3-4 1.3 0 3.5 1.6 6.5 4.6l6.7 6.7c0.3 0.4 0.7 0.7 1 1 3.4-5.3 5.7-6.6 9.2-8 0.2 0.5 0.6 1.2 0.4 1.5 -2.6 3.3-4.7 6.8-6.6 10.5 0.3 0.6 0.4 1.1 0.4 1.5 0 1.5-1.3 3.5-3.8 6.3l-0.1-0.1c-1.6 4.1-3 8.2-4.2 12.5C356.5 302.3 356.1 304.2 352.4 303.9z" class="a"/><path d="M377.6 189.9c1.8 3.9 5.4 10.1 10.7 18.8l9.1 14.8c5.5 8.9 9.5 15 12.1 18.3 0.4 0.5 0.9 1 1.3 1.5 1.8-1.6 3.8-3 5.8-4.4 3-2 6-3.8 8.6-6.4 1.7-1.8 3.9-2.6 6.5-2.4 0.5 0 0.9 0.1 1.4 0.1 -1.2-1.2-3.2-4-6-8.6l-24.8-40.4c-2.7-4.4-4.1-7.3-4-8.6 0.1-1.3 0.7-2.3 1.9-3 1.4-0.9 2.6-0.9 3.8 0 1.1 0.8 2.9 3.3 5.4 7.3l24.4 39.7c3.1 5.1 4.9 8.4 5.3 10.1 0.4 1.5-0.1 2.7-1.3 3.6 0.7 0 1.4 0.3 2 0.4 2.5 0.5 5.4 0.1 5.7 5.1 -5.2 0-10.2 0-14.3 0 -4.7 3-9 6.3-12.7 9.7 -0.8 0.7-1.6 1.4-2.3 2.2 1.1 0.6 2.2 1.1 3.4 1.6 4.1 1.6 8.5 2.1 13.1 1.3 0.7-0.1 1.3-0.3 2-0.4 -0.1-0.1-0.1-0.2-0.2-0.3 -1.1-2-2.4-3.9-4-6.4 4 1.2 6.3 2.9 7.2 5.8 2.9-1 5.9-2.3 8.8-4.2 0.3-0.2 0.6-0.4 0.9-0.6 -0.1 0-0.1-0.1-0.2-0.1 0.4-0.2 0.7-0.3 1-0.4 4.1-2.7 7.3-5.8 9.6-9.2 2.7-3.9 4.2-7.9 4.5-12.3 0.3-4.3-0.4-8.4-2.2-12.3 -1.8-3.9-5.4-10.1-10.7-18.8l-9.1-14.8c-5.5-8.9-9.5-15-12.1-18.3 -2.6-3.3-6-5.8-10.1-7.4 -4.1-1.6-8.5-2.1-13.1-1.3 -4.6 0.8-9.2 2.6-13.9 5.4 -4.9 3-8.7 6.4-11.3 10.3 -2.7 3.9-4.2 7.9-4.5 12.3C375 182 375.8 186.1 377.6 189.9z" class="a"/><path d="M904.4 551.8c-2.1 1.1-3.6 1.9-5 2.7 -1.7-1.2-2.6-3.2-2.6-4.8v24c1-0.8 3.8-1.6 5.5-2.6 1.7-0.9 1.6-3.1-0.3-4.3 -0.7-0.5-1.8-0.6-2.3-1.2 -0.5-0.5-0.6-1.6-0.5-2.3 0-0.4 0.8-1 1.2-1.1 4.4-0.7 8.9-0.3 10.7 4.1 0.5 1.2 1.7 2.2 1.7 3.1V529.7c0-9.2-0.3-15.2-1.3-17.7 -1-2.6-3-3.9-6.2-3.9 -2.7 0-4.9 1-6.3 3.1 -1.4 2.1-2.2 8.2-2.2 18.5v12.3C898.7 545.1 902.8 547.7 904.4 551.8z" class="a"/><path d="M901 338.9h30c-7.9-9-16.4-18.6-25.4-27.6 -69.2-69.2-161.2-106.9-259.1-106.9 -58.5 0-114.9 13.6-165.6 39.3 0.2 1.2 0.2 2.3 0.1 3.4 -0.4 3.9-1.8 8.2-6.7 9.5 0 0.1 0.1 0.2 0.1 0.3 0 0 0 0 0 0 -0.1 0.2-0.3 0.3-0.4 0.5 -0.5 2-0.8 4.1-1.8 5.8 -0.7 1.3-2.4 1.9-4.1 2.5 1-3.5 3.7-5.7 5.8-8.3 0.1-0.3 0.1-0.5 0.2-0.8 0 0 0.1 0 0.1 0 -0.7-1.9-0.9-3.8 0.4-5.6 1-1.4 2.1-2.8 2.9-3.9 0-0.5 0-1-0.1-1.5 -23.4 12.2-45.6 26.9-66.1 44.2 0.2 0.1 0.4 0.2 0.6 0.3 2.6 1.9 5 4 8.3 6.6 -5.8 0.6-7.9-3.2-11-5.2 -7.5 6.4-14.8 12.8-21.9 19.8 -9 9-17.5 18.6-25.4 27.6h30c2.8-2 5.7-5.3 8.7-8.5 -0.4-0.7-0.8-1.4-1.2-2.6 1.3 0 2.6 0 3.9 0.1 0.1 0 0.1-0.1 0.1-0.1 17.5-17.5 36.5-32.8 56.8-45.9 0.8-1.5 1.9-2.7 4-2.6 26-16.3 54-28.9 83.3-37.7 0 0 0-0.1-0.1-0.1 0.2 0 0.3 0 0.5 0 31.5-9.3 64.6-14.2 98.4-14.2 91.8 0 178.1 35.2 243 100.1C893.4 331.2 897.3 335.9 901 338.9zM440.4 291c-0.1 0-0.3-0.4-0.5-0.6 0.2-0.2 0.4-0.6 0.4-0.6 0.4 0.1 0.8 0.4 1.2 0.6C441.2 290.7 440.8 290.9 440.4 291zM462.4 272.2c-0.4 0.1-1-0.3-1.5-0.5 0.2-0.5 0.3-1.2 0.7-1.5 0.7-0.4 1.6-0.6 2.4-0.8 0.1 0 0.4 0.9 0.6 1.5C464 271.4 463.3 271.9 462.4 272.2zM509.5 246.4c-0.4-0.1-0.8-1.1-0.9-1.7 0-0.2 1-0.9 1.2-0.8 0.7 0.3 1.2 0.9 2.1 1.7C510.8 246 510.1 246.5 509.5 246.4zM688.9 221.8c-0.6 1.8-2 2.9-3.9 3.2 -3.1 0.5-5.7-0.8-7.3-3.7 -1.4-2.5-1.1-6.2 0.8-8.3 0.8-0.8 2-1.1 2.6-1.4C686.3 211.8 690.3 217.4 688.9 221.8zM756.8 234c-2.1 2.6-5.6 2.3-10.3-2 4.3-0.1 6.9-0.2 9.5 0C756.3 232 757 233.7 756.8 234z" class="a"/><path d="M179.4 338.9c0-0.2 0.4-0.1 0.6-0.2 0.2 0.1 0.5 0 0.7 0.1 -0.2 0.1-0.3 0.1-0.5 0.1h12.6c21-40 47.5-78.6 79-112.9 -0.6-0.4-1.2-1.1-2.1-2.4 0.8-0.3 1.6-0.8 2.4-0.8 0.8 0 1.6 0.3 2.5 0.6 4-4.2 8-8.4 12.1-12.5 46.7-46.7 101.2-83.3 161.8-109 31.8-13.5 64.7-23.5 98.3-30.2 -2.1-0.3-4.2-0.9-6.3-1.4 -6.3-1.6-8.5-8.1-4.6-13.3 1.2-1.7 2.7-3.2 3.7-5.1 3.5-6.6 9.1-10 16.3-11.2 2-0.3 4-1 6.2-1.6 2.9 3.3 5.6 6.4 6.9 10.5 1.3 4.2 4.9 6.7 7.6 9.8 1.9 2.1 2.4 4.4 2.5 6.9 22.2-2.9 44.8-4.4 67.5-4.4 68.7 0 135.4 13.5 198.1 40 60.6 25.6 115 61.8 161.8 108.5 38.2 38.2 69.6 82.4 93.8 128.4h42.1c-27-57-63.6-109.7-109.1-155.2 -50.2-50.2-108.7-89.4-173.8-116.9 -67.4-28.5-139.1-42.8-212.9-42.8 -24 0-47.7 1.6-71.1 4.6 0.3 0.6 0.5 1.3 0.6 2 0 2-2.1 3.7-4.2 3.5 -1.8-0.2-3.2-2.1-3.1-4.5 -40.4 5.8-79.9 16-118.2 30.7 2.7 2.7 1.6 6.7-1.4 7.9 -2.7 1.1-5.6 2.1-6.8 5.3 -0.3 0.8-2 1.8-2.7 1.5 -1.3-0.4-2.5-1.4-3.3-2.5 -0.6-0.9-0.6-2.3-0.5-2 0.2-1.7 0.3-3.2 0.5-4.5 -0.8 0.3-1.6 0.7-2.5 1 -65.1 27.5-123.6 66.4-173.8 116.6 -45.5 45.5-82.2 98.2-109.1 155.2h28.8C179.4 338.9 179.4 339 179.4 338.9zM880.9 106.1c1.8-3.2 5.1-4.1 8.3-2.4 1.3 0.7 2.5 1.6 3.7 2.5 2.4 1.8 3.2 4.1 2.4 7 -0.7 2.7-2.7 3.7-5.1 4.4 -0.8 0.3-1.7 0.3-2.2 0.4 -4.2 0-6.2-2.5-8-5.3C878.6 110.4 879.8 108.2 880.9 106.1zM321.9 172.2c0.3-0.7 1.8-1.3 2.8-1.3 1.8 0 2.2 1.1 1.6 3.8 -0.1 0.2-0.4 0.4-0.6 0.7 -0.6 0-1.2 0-1.7-0.2C322.7 174.7 321.1 174 321.9 172.2z" class="a"/><path d="M526.2 117.3c-1.7-2.8-4-5.1-6.8-7.1 -3.6-2.5-7.8-4-12.4-4.3 -4.7-0.3-9.6 0.4-14.7 2.1 -5.4 1.8-9.9 4.3-13.4 7.4 -3.5 3.1-5.9 6.8-7.2 10.9 -1.3 4.1-1.5 8.3-0.6 12.5 0.9 4.2 2.9 11.1 6.2 20.8l5.5 16.5c3.3 9.9 5.9 16.8 7.6 20.6 1.8 3.8 4.5 7 8.1 9.5 3.6 2.5 7.8 4 12.4 4.3 4.7 0.3 9.6-0.4 14.7-2.1 5.4-1.8 9.9-4.3 13.4-7.4 3.5-3.1 5.9-6.8 7.2-10.9 1.3-4.1 1.5-8.3 0.6-12.5 -0.9-4.2-2.9-11.1-6.2-20.8l-5.5-16.5c-1.4-4.3-2.7-8.1-3.9-11.3 -2.6 0.7-5.3 0.8-7.6-0.7 -1.9-1.3-3.6-2.9-5.9-4.8 2.7-2.1 4.8-4.1 7.2-5.6C525.4 117.6 525.8 117.4 526.2 117.3zM512.4 125.2c0.3-1.4 1.4-1.5 2.5-1 0.3 0.2 0.4 0.8 0.8 1.8 -1 0.2-1.9 0.5-2.8 0.6C512.7 126.6 512.3 125.6 512.4 125.2zM519.8 177.7c1.9 5.7 2.8 9.3 2.9 11 0 1.7-0.8 2.8-2.5 3.4 -1.7 0.6-2.9 0.3-3.8-0.9 -0.9-1.2-2.3-4.5-4.1-10.1l-15-45c-1.7-5-2.3-8.1-1.9-9.3 0.4-1.2 1.2-2.1 2.5-2.5 1.5-0.5 2.8-0.2 3.7 0.9s2.1 3.9 3.6 8.3L519.8 177.7z" class="a"/><path d="M676.5 281.8l-29.2-4.2 -13.4-27.1 -13.4 27.1 -29.9 4.3 21.6 21.1 -2.3 13.2c4.6-1.2 9.3-1.9 14.2-2.2 -4.3 3.5-9.4 4.1-14.7 5.2l-2.3 13.5 26.7-14 26.7 14 -5.1-29.7 21.1-20.5C676.5 282.3 676.5 282 676.5 281.8z" class="a"/><path d="M1170.1 356.9H518.5c0.3 0 0.5 0.8 0.5 1.1 0 0.6-0.8 1.3-1.7 2.6 -0.8-1.4-1.3-2.3-1.8-3.1 0.2-0.1 0.4-0.5 0.6-0.5H344.1c-2.2 2-5.7 2-8.6 0H121.8c-35 0-65.8 18.4-83.3 46 1 0.4 1.9 1.1 2.9 1.7 -1.1 3.8-3 4.9-5.6 4.4 -0.2-0.1-0.7-0.1-0.9-0.2 -7.6 14-12.1 30-12.1 47v196.9c4 2.3 7.2 4.4 10.7 6.6 0.5 0.3 1 0.8 1.4 1.3 0.8 1 1.5 2.1 0.3 3.1 -0.5 0.4-1.8 0.6-2.4 0.3 -2.4-1.2-4.6-2.7-6.9-4.1 -0.4 0.6-0.8 1.3-1.2 1.9 -0.3-0.3-0.9-0.8-0.9-0.9 0.4-0.6 0.6-1.1 1.1-1.6 -0.5-0.8-1.1-1.5-2.1-2.2v27.8c0 21.7 7.2 41.7 19.1 57.9 0.1-0.2 0.3-0.3 0.4-0.3 0.9 0.1 1.9 0.5 3.5 1 -0.9 0.8-1.3 1.3-1.8 1.6 18 23.2 46.2 37.8 77.9 37.8h112c1.8-3 2-2.6 5.9-4.4 2.1 1.2 4 2.8 7 4.4 0 0.2 0 0 0 0h387.9c-0.2 0-0.3-0.2-0.5-0.4 1.6-3.1 3.4-6.3 5.2-9.7 2.3 1.8 4.6 3.2 6.8 5.1 1.7 1.4 2.9 3 3 5h25c-0.3 0-0.6-0.8-1.2-1.3 -3.6-3.5-7.3-6.8-11-10.3 -2.8 3.3-5.2 6.1-8 9.3 -2.2-3.1 1.5-4.8 0.5-7 -1.1-2.5 0.3-3.9 3-5.2 -3.6-1.3-4.8-5.4-9-5.3 -0.5 0-1.3-0.8-1.4-1.2 -0.1-0.2-0.1 0-0.2-1h-10.6c-0.2 1-0.7 1.8-1.2 2.3 -0.2 0.2-1.6-0.4-2.1-1 -0.5-0.5-0.8-0.4-1-1.4h-57c-0.1 1-0.1 1.1-0.2 1.5 -0.1 0.3-0.9 0.3-2.3 0.9 -0.3-0.8-0.5-1.4-0.6-2.4h-15.8c-0.7 1-1.3 2.2-2.1 3.3 0-1.1 0.1-2.3 0.2-3.3H121.9c-41.9 0-76.1-33.2-76.1-75.1V455.8c0-41.9 34.3-75.9 76.1-75.9h593.5c-0.2-1-0.3-0.4-0.5-0.6 -0.9-1.5-1.7-3.1-2.7-4.9 -1.1-0.2-1.4-0.2-1.7-0.2 -1.7-0.1-3.8 0.5-4.5-1.8 -0.4-1.4 1.8-2.1 4.9-1.5 0.9 0.2 1.7 0.3 3.1 0.5 1-1.7 2-3.4 2.9-5.2 2.3-4.5 6-6.6 11-6 3.2 0.4 6.4 1.4 9.9 2.2 0.5 1.3 1.2 2.6 1.5 4 0.9 5.4-0.7 8.8-5.5 10.8 -2 0.8-3.9 1.6-5.7 2.6h127.8c-1.6-3-1.7-4.6-1-7.1 0.4-1.5 1.8-2.2 3.9-1 -0.1 0.9-0.3 2-0.3 3.1 0 1.2 0.3 2.3 0.3 3.5 0 0.5-0.1 0.6-0.1 1.6h97.1c-0.1-1-0.2-0.8-0.1-1.2 0.3-1.6 1.4-2.6 3.1-2.4 2.1 0.2 3.7 1.6 3.9 3.6h207.2c41.9 0 75.7 34.1 75.7 75.9v46.7c0 0.1 0.7 0.3 1.1 0.4 -0.4 0.4-1.1 0.7-1.1 1.1v181.7c0 41.9-33.9 75.1-75.7 75.1h-4.7c0.2 0 0.5 0.7 0.8 0.9 -1.5 1.1-2.5 2-3.5 2.7 -0.4-0.7-1.4-2-1.2-2.4 0.2-0.4 0.5-0.3 0.8-1.3H712.8c1 1 2 2.5 2.9 3.7 3 3.7 5.5 7.6 8.8 11.1 1.9 2 3 5.2 3.9 7.2h265.7c0.1 0 0.3-0.3 0.4-0.6 0.4 0.2 0.7 0.4 1.1 0.6 0 0 0 0 0 0h174.5c54.4 0 97.7-43.6 97.7-98.1v-229.1C1267.7 401.3 1224.5 356.9 1170.1 356.9zM23.4 504.6c0.2-0.4 0.9-0.4 1.3-0.6 0.2 0.5 0.4 1 0.6 1.5 -0.5 0.2-1 0.6-1.4 0.4C23.6 505.7 23.2 504.9 23.4 504.6zM28 522.6c-1.6-1.5-2.9-2.8-4.6-4.4C28.4 517.9 28.8 518.4 28 522.6zM610.8 770.8c0.4-0.3 1.1-0.3 2.2-0.6 0.5 0.6 1.6 1.3 1.8 2.3 0.4 1.3-0.6 2.1-1.8 2.4 -0.6 0.1-1.3 0.3-1.7 0.1 -0.9-0.5-1.7-1.2-2.6-1.9C609.4 772.3 610 771.5 610.8 770.8zM281.1 764.5c1.9-2.1 4.6-3.2 7.4-2.1 5.5 2.1 11.1 2.1 16.8 1.5 1.5-0.2 3 0 4.4 0.4 0.7 0.2 1.3 1.1 1.6 1.8 0.1 0.3-0.4 1.1-0.8 1.4 -2 2-4.3 1.5-7.3 0.6 -0.9 2.4-1.4 4.2-2.1 5.7 -2.6 5.3-7.8 7.5-13.6 5.7 -3.9-1.2-8.5-4-12.4-7.6C277.1 769.5 279 766.9 281.1 764.5zM257.2 779c0.2 0.4 0.4 0.6 0.3 0.8 0 0.2-0.3 0.4-0.5 0.5C257.1 779.9 257.1 779.5 257.2 779zM226.2 776.7c0.2 0 0.4 0 0.6 0 -0.1 0.4-0.2 0.9-0.4 1.3 -0.2-0.2-0.5-0.4-0.5-0.6C225.9 777.2 226.2 776.9 226.2 776.7zM215.5 779.3c0.2 0 0.5 0 0.5 0.1 0.1 0.2 0.1 0.4 0.1 0.6 -0.3-0.1-0.6-0.1-0.8-0.1C215.4 779.7 215.5 779.5 215.5 779.3zM106.8 762.5c3.1 1 7.1 1.1 9.1 5.7 -5.5-1.2-10.3-2.3-15.1-3.3C102.1 762.4 104.6 761.7 106.8 762.5zM45.2 408.5c-0.3-0.1-0.8-1.7-0.6-1.9 0.6-0.5 1.6-0.9 2.3-0.8 0.6 0.2 1.1 1.1 2.2 2.4C47.2 408.4 46.2 408.7 45.2 408.5zM56 415c-0.7-0.7-1.4-1.4-2.1-2 0.5-0.2 1.1-0.7 1.5-0.6 0.7 0.3 1.2 0.9 1.8 1.4C56.6 414.3 56.3 414.6 56 415zM162 367.9c-0.4 0-1.4-1.7-1.2-2 0.6-0.8 1.6-1.3 2.5-1.9 0.5 0.7 0.9 1.4 1.7 2.7C163.8 367.2 162.9 367.9 162 367.9zM764.1 376.3c-0.4-0.4-0.9-0.7-1-1.2 -0.4-1.5 1-3.2 2.2-2.9 0.4 0.1 0.7 0.7 1.5 1.6C765.9 374.7 765 375.5 764.1 376.3zM848 372.4c-3.3-3.4-1.6-7.1-1.8-11.6C849.2 364.9 849.6 368.3 848 372.4zM871.6 370.2c-0.2-0.1-0.4-0.3-0.6-0.4 0.4 0 0.8 0 1.2 0.1C872 370 871.8 370.1 871.6 370.2zM875.9 369.1c3 0 4.2-0.3 4.9 0.1 0.6 0.4 0.7 1.7 1.6 3.9C879.9 371.5 878.7 370.8 875.9 369.1zM895.8 377.5c-2.9-1.1-3-3.2-2.3-6.5C896.1 373.1 897.7 374.7 895.8 377.5zM1024.1 376c-0.2 0.9-1.7 1.4-3.1 2.4 -1.7-1.2-3.6-2.1-4.8-3.5 -1.3-1.5-0.7-3.4 0.7-4.8 1.2-1.2 2.7-1.2 4.1-0.4 1 0.6 2.2 1.3 2.6 2.3C1024.2 373.2 1024.4 374.8 1024.1 376zM1063.3 374.5c-1.8-1.8-3.3-3.3-5.1-5.1 1.1-0.8 1.7-1.7 2.3-1.6C1064.1 368.4 1064.3 368.9 1063.3 374.5zM963.7 769.1c-0.2 0-0.4-0.4-0.6-0.7 0.5-0.3 0.9-0.5 1.4-0.8 0.2 0.4 0.5 0.7 0.7 1.1C964.7 768.9 964.2 769.1 963.7 769.1zM996.6 774.3c-1.1 0.1-2.7-0.9-3.5-2 -1.2-1.5 0.2-2.8 1.4-3.6 2.6-1.8 3.8-1.2 6.7 3.4C999.7 773 998.2 774.2 996.6 774.3zM1021.6 765.7c-0.1 0.9-1.1 1.8-1.7 2.7 -0.6-1.3-1.3-2.5-1.6-3.8 -0.1-0.4 1-1.1 2.2-2.2C1021 763.9 1021.7 764.9 1021.6 765.7z" class="a"/><path d="M1014.1 249.1l-18.9-17.4c-0.4 0.4-0.9 0.7-1.3 1.1 -0.3 5.7-3.5 9.3-6.6 12.8 -0.5 0.6-1.6 0.9-2.4 1 -2.3 0.3-4.3-0.2-6-1.3 -12.8 11-25.5 22.4-37.9 34.4l24-30.4c3.4-4.4 6.4-8.2 9-11.5 -0.1-1.6 0.3-3.2 1.3-4.7 1.6-2.4 3.8-4.6 5.9-6.6 0.9-0.8 1.8-1.2 2.7-1.5 0.8-1 1.4-1.8 1.7-2.3l-20.2-18.6c-22.3 18.5-39.8 33.9-52.6 46.3l21.2-27 22-27.9 -18.9-17.4 -60.1 82.7 24.1 22.2c21.1-17.2 34.9-28.6 41.5-34.2 -11.8 16.2-21.8 31-30.2 44.6l24.2 22.3L1014.1 249.1zM903.6 242.9c-0.1-3.8 2.5-7.3 5.2-7 3.1 0.3 6.5 3.6 6.6 6.3 0.1 2.8-3.6 6.1-6.7 5.9C906.2 247.9 903.6 245.3 903.6 242.9zM933.5 294.5c0-0.6 0.9-1.6 1.5-1.8 0.6-0.1 2 0.5 2.1 1 0.4 1.5 0.3 3.1 0.3 4.8C934.1 298.7 933.5 296.7 933.5 294.5z" class="a"/><path d="M571.9 90l9.4 101.1 26.3-2.5 -4-43.3 14.7 42.3 27.2-2.5 -21.7-53.9 10.8-47 -4.7 0.4c0.3 0.7 0.5 1.5 0.6 2.2 0.1 1.2-0.9 3-2 3.6 -1 0.5-2.8-0.1-4.1-0.5 -0.7-0.3-1.3-1.1-1.8-1.9 -0.6-1-0.9-1.8-1-2.6l-11.7 1.1 -8 40.4 -3.7-39.3L571.9 90z" class="a"/><path d="M885.2 169.9c1.5-3.9 1.8-8.1 1.1-12.5 -0.7-4.4-2.6-8.3-5.6-11.9 -3-3.6-7-6.6-11.8-9.1 -5.1-2.6-10-4.1-14.7-4.4 -4.7-0.3-9 0.5-12.8 2.5s-7 4.7-9.3 8.3c-2.4 3.6-5.9 9.9-10.5 18.9l-7.9 15.5c-4.8 9.3-7.9 15.9-9.3 19.9 -1.5 3.9-1.8 8.1-1.1 12.5 0.7 4.4 2.6 8.3 5.6 11.9 3 3.6 7 6.6 11.8 9.1 5.1 2.6 10 4.1 14.7 4.4 4.7 0.3 9-0.5 12.8-2.5 3.9-2 7-4.7 9.3-8.3 2.4-3.6 5.9-9.9 10.5-18.9l7.9-15.5C880.6 180.5 883.8 173.9 885.2 169.9zM863.1 155.1c-0.1 1.4-1.3 4.2-3.4 8.4l-21.3 41.5c-2.7 5.3-4.7 8.6-5.8 9.8 -1.2 1.2-2.6 1.4-4.2 0.5 -1.6-0.8-2.2-1.9-2-3.4 0.2-1.4 1.6-4.8 4.3-10l21.6-42.2c2.4-4.6 4.1-7.3 5.3-7.9 1.1-0.6 2.3-0.6 3.5 0C862.6 152.6 863.3 153.7 863.1 155.1z" class="a"/><path d="M993.9 746.3c0.7 0.1 1.3 0.5 2 0.5h152.7c-0.1 0-0.1-0.1-0.2-0.1 0.5-0.2 0.9-0.3 1.4-0.4 0.1 0 0.3 0.3 0.4 0.6 -0.1 0-0.1 0-0.2 0h18.7c33.4 0 59.9-26.9 59.9-60.3V504.4c-3-0.6-6-0.5-9.2 1 -1.5 0.7-3.4-0.2-5.1 0.1 -1.6 0.3-3 1.3-4.5 2.1 -1.3-2.3-0.1-3.2 1.3-3.6 6-1.6 11.6-3.1 17.6-4.6v-42.4c0-31.8-24.4-57.9-55.6-60.3 0.1 0.2 0.4 0.3 0.5 0.5 -2.7 0.3-3.8 0-4.3-1 -0.2 0-0.3-0.4-0.5-0.4H863.7c0.1 0 0.3 0.7 0.4 0.9 6 0.8 11.9 5.3 19.1 3.4 -7.5 4.1-15.6 2-23.5 3.2 0-2.8 0.1-5.5 0-7.5h-616.5c2 1 3.8 2.9 4.1 5.1 0.2 1.8-1.7 4-3.8 4.3 -2.5 0.3-4.6-1.6-5.1-4.1 -0.4-2.3 1-4.3 3.1-5.3h-66c-2.1 3-6.1 2.9-8.9 1.2 -0.5-0.3-1-0.2-1.5-1.2h-44.1c-33.4 0-61.3 27.8-61.3 61.1v229.6c0 33.4 27.9 60.3 61.3 60.3h435.5c0 0 0-0.1 0-0.2 -0.2-5.9 4.9-9.4 4.8-16.3 2.7 3.3 4.5 5.4 6.1 7.7 1.5 2.1 2.8 4.5 4.7 7.6 -4.2 0.3-6.9 0.4-10 0.6 -0.1 0.2-0.1 0.6-0.2 0.6h51.8c0.6-2 1.1-3.2 1.8-5.5 2.4 0.7 3.9 0.9 5.2 1.5 1.8 0.9 2.9 2 3 4h13.1c-0.7-3-1.4-6.1-2.1-9.5 0.8-1.3 1.9-3 3-4.7 0 0 0 0 0 0 -2 0.2-4 0.3-6 0.5 -1.4 0.2-2.8 0.5-4.2 0.7 -0.7 0.1-1.5-0.3-2.2-0.4 0.3-0.7 0.4-1.9 0.9-2.2 3-1.4 6.1-2.2 9.2 0 0.7 0.5 1.5 1 2.3 1 0 0 0 0 0 0v0.3l0 0c0 0 0 0 0 0 0.6 0.5 1.4 1.4 1.7 1.3 5.9-2.8 12.2-4.3 18.6-5.5 1.9-0.4 3.6-2 5.5-2.7 1.9-0.7 4.1-1.7 5.9-1.3 5.7 1.3 11.3 3.3 15.2 8.2 0.9 1.1 2 2.4 3.2 2.8 2.2 0.7 2.9 2.3 2.8 4 -0.2 2.8 0.5 4.4 3.4 5 0.4 0.9 0.9 1.4 1.4 2.4h298C993.7 745.9 993.8 746.3 993.9 746.3zM211.9 473.6c0.4-1.2 1.3-2.8 2.3-3.3 2.2-1.1 4.6-1 5.9 2.4 -1.6 0.8-3.1 1.6-4.7 2.2C213.5 475.6 211.5 474.8 211.9 473.6zM130.5 402.3c0.1-0.4 1.7-0.9 2.1-0.7 1.5 0.8 1.6 2.2 0.8 3.6 -0.1 0.2-0.4 0.5-0.5 0.7 -0.3-0.1-0.6-0.1-0.8-0.2C130.3 405.1 130 403.7 130.5 402.3zM94.5 589.7c0.6 0.3 1 0.9 1.9 1.8 -1.1 0.4-2 1-2.4 0.8 -0.5-0.3-0.7-1.2-0.8-1.9C93.2 590.1 94.2 589.5 94.5 589.7zM95.5 685.9c-0.3 0.3-0.6 0.5-1 0.7 -0.1 0-0.6-0.4-0.5-0.5 0.1-0.4 0.4-0.7 0.6-1.1C94.9 685.3 95.2 685.6 95.5 685.9zM89.9 483.3c0.4 0.2 0.5 1 0.7 1.5 -0.4 0.3-0.8 0.6-1.2 0.9 -0.3-0.7-0.7-1.3-1-2C88.9 483.6 89.5 483.2 89.9 483.3zM64 481.2c0.5-2.6 3-3.4 5.4-3.9 0.3-0.1 0.6-0.1 0.9-0.1 1.5-0.1 3.2 0 3.7 1.6 0.3 1 0.2 2.5-0.4 3.3 -1.2 1.6-2.8 2.8-4.5 4.5C66 485.1 63.5 484.1 64 481.2zM100.7 708.2c-2.5 2.5-6.7 1.9-6.9-1.5 -0.3-4.7-2.8-5.3-6.3-5.6 -1.8-0.2-3.5-0.4-5.8-0.6 -1.4 4.9 1 10.5-5.4 13 -0.2-1.7-0.5-2.9-0.4-4 0.5-4.6 0.6-9-2.5-12.9 -0.7-0.9-0.9-2.2-0.9-3.4 -0.1-2 1.1-3.6 2.8-4.3 4.9-2 8.9-4.9 11.2-9.8 0.2-0.5 0.9-0.9 1.4-1 0.5-0.2 1.4-0.2 1.7 0.1 0.6 0.5 1.5 1.6 1.3 2.1 -1 2.8-2.2 5.4-3.7 8.7 1.9 0.5 3.6 1.5 5.1 1.3 3.8-0.6 6.3 1.2 8.5 3.8 0.2 0.2 0.4 0.5 0.6 0.7C106.5 700.8 106.4 702.5 100.7 708.2zM111.9 684.2c-0.5-0.3-0.8-1.2-1-1.9 0-0.2 1-0.9 1.3-0.8 0.6 0.2 1.1 0.8 2.1 1.6C113.1 683.7 112.3 684.4 111.9 684.2zM181.5 719.6c-0.3 0.4-1.1 0.6-1.6 0.5 -5.3-0.5-10.6-1-15.8-1.8 -0.8-0.1-1.2-2-2.3-4 7.7-0.6 13.8-0.6 19.8 0.8 0.7 0.2 1.7 1.3 1.6 1.7C183 717.9 182.2 718.8 181.5 719.6zM205.7 744.7c0-2.2 0-3.9 0-5.4 3-1.3 3.9 0.7 6.1 3.3C209.5 743.5 207.7 744 205.7 744.7zM237.7 630.8c0 13.4-1.4 23.4-4.4 29.9s-7.9 10.6-14.6 13c-6.7 2.4-20.4 3.3-41.2 3.3h-60.8v-67.1c0 0-0.2-0.1-0.3-0.1 0.1-0.2 0.3-0.3 0.3-0.5V477.9h52.6c16.3 0 28.6 1.7 37 4.2 8.4 2.5 15.2 7.9 20.3 15.6 5.2 7.7 7.7 20.3 7.7 37.5 0 11.6-1.8 19.8-5.5 24.3 -3.6 4.6-10.8 8.1-21.5 10.6 11.9 2.7 19.9 7.2 24.2 13.5 4.3 6.3 6.2 15.9 6.2 28.8V630.8zM235.4 571c-2.3 1.3-3.3 2-4.4 2.3 -0.3 0.1-1.3-1-1.5-1.6 -0.2-1.2 0.5-2.3 1.8-2.2C232.3 569.5 233.2 570.1 235.4 571zM244.8 658.5c-0.8-0.6-1.5-1.2-2.3-1.8 0.4-0.3 0.9-0.8 1.2-0.8 0.7 0.1 1.3 0.6 1.9 0.9C245.3 657.6 245.1 658.1 244.8 658.5zM624.5 420.3c0.2 0 0.4 0.9 0.6 1.3 -0.4 0.3-1.1 0.9-1.1 0.9 -0.5-0.5-0.9-1-1.3-1.6C623.3 420.7 623.9 420.4 624.5 420.3zM521.7 504.9c0.2 0.1 0.4 0.1 0.6 0.2 0 0.2 0 0.5-0.1 0.6 -0.2 0.1-0.4 0.1-0.7 0.1C521.6 505.5 521.7 505.2 521.7 504.9zM502 432.8c0.8-1.5 1.9-2.9 3.1-4.1 0.5-0.5 1.9-0.6 2.4-0.3 0.8 0.5 1.3 1.6 1.7 2.2 -0.3 3.1-1.5 4.4-4.5 5.1 -0.7 0.2-1.8-0.1-2.3-0.6C501.9 434.6 501.7 433.4 502 432.8zM296.9 450.9c0.2 0.5 0.5 0.9 0.7 1.4 -0.4 0.2-0.8 0.4-1.1 0.6 -0.1-0.5-0.3-1-0.2-1.5C296.3 451.2 296.7 451.1 296.9 450.9zM268.9 727.8c-4.6 2.7-9.7 0.5-10.9-4.7 -0.5-2.3-0.6-4.7-1-8.1 2.4 0.2 3.8 0.2 5.2 0.4 8.5 0.8 8.6 0.9 11 9.6C271.9 725.9 270.5 726.9 268.9 727.8zM267.2 710.6c0.5-0.2 1.1-0.7 1.4-0.6 0.3 0.1 0.5 0.9 0.7 1.3 -0.5 0.3-1 0.5-1.5 0.8C267.6 711.6 267.4 711.1 267.2 710.6zM374.7 595.1c0 20-0.5 34.1-1.4 42.4 -0.9 8.3-3.9 15.9-8.8 22.8 -5 6.9-11.6 12.2-20.1 15.8 -7.5 3.3-16.2 5.1-26 5.5 -0.5 1.1-1.4 1.9-2.9 2.5 -2.5 0.9-4.5 0.1-6.5-2.6 -8.3-0.5-15.9-2.2-22.7-5 -8.5-3.5-15.3-8.7-20.4-15.7 -5.2-7-8.4-14.5-9.4-22.7 -1-8.2-1.7-22.5-1.7-43V561.1c0-20 0.7-34.1 1.6-42.4 0.9-8.3 4-15.9 8.9-22.8 1.1-1.6 2.5-3.1 3.8-4.5 0.2-0.3 0.5-0.6 0.7-0.7 4.3-4.4 9.5-7.9 15.7-10.6 8.4-3.7 18.3-5.5 29.5-5.5 10.6 0 20.2 1.7 28.7 5.2 8.5 3.5 15.3 8.7 20.4 15.7 5.2 7 8.2 14.5 9.2 22.7 1 8.2 1.5 22.5 1.5 43V595.1zM374.1 521.7c-0.2-0.5-0.6-1-0.5-1.4 0-0.3 0.7-0.6 1-0.8 0.2 0.5 0.6 1 0.6 1.4C375.2 521.2 374.5 521.4 374.1 521.7zM431.8 730c2.6 1.7 3 4.4 3.3 7 0.3 2.3-1.6 4.1-3.9 3.5 -1.4-0.4-2.8-1-3.8-2 -3.9-3.7-5.5-8.4-5.2-13.7 0.2-2.9 0-5.8 0-8.4 -3-1.9-5.1-0.9-7.2 0.5 -1.9 1.3-3.8 1.6-5.8-1 2.3-2.8 4.5-5.9 7.1-8.6 0.8-0.8 3-1 4-0.5 1.8 0.9 3.1 2.7 4.9 4.3 1.5-0.4 3.3-0.7 4.9-1.2 1.1-0.4 1.6-2.6 3.4-1.4 -1.3 3.3-2.5 6.3-3.8 9.5 1.8 1.8 3.6 3.7 5.7 5.7 -1.6 1.5-2.9 2.6-4.4 4C431.3 728.5 431.3 729.6 431.8 730zM453.4 707.5c-3.4-2-3.4-2.9 0.5-7.6C454.9 702.8 454.9 702.8 453.4 707.5zM466 723.3c-0.2-2.6-0.7-3.8-0.3-4.5 3.4-6.7 7.5-12.9 13.4-17.8 0.3-0.3 1.1-0.1 3.1-0.3C476.6 708.5 471.8 715.2 466 723.3zM487.3 676c-1.4 4.4-4.7 5.8-9.6 6.6 -1.7-1.2-3.4-2.1-4.9-3.4 -6.2 1.6-13 2.5-20.5 2.5 -10.6 0-20.2-1.7-28.7-5.2 -8.5-3.5-15.3-8.7-20.4-15.7 -5.2-7-8.2-14.5-9.2-22.7 -0.9-7.3-1.4-19.4-1.5-36.3 -1.4 0.2-2.5-0.7-3.4-1.9 -0.2-0.3-0.2-1.1 0-1.4 0.3-0.4 1.2-0.8 1.4-0.6 0.7 0.4 0.9 0.9 1.5 1.4 0-1.4-0.4-2.7-0.4-4.2V561.1c0-20 0.9-34.1 1.8-42.4 0.9-8.3 4.1-15.9 9-22.8 5-6.9 11.7-12.2 20.2-15.8 8.4-3.7 18.3-5.5 29.5-5.5 10.6 0 20.2 1.7 28.7 5.2 8.5 3.5 15.3 8.7 20.5 15.7 5.2 7 7.5 14.5 8.5 22.7 1 8.2 0.8 22.5 0.8 43v34c0 20 0.2 34.1-0.7 42.4 -0.9 8.3-3.5 15.9-8.5 22.8 -2.7 3.7-5.7 7-9.4 9.7 -0.4 0.9-1 1.8-2 2.8C489.1 673.8 487.6 674.7 487.3 676zM516.9 740.8c-1.3-0.6-2.5-1.2-4.2-2 1.2-3.4 2.3-6.3 3.3-9.3 -4.4-2.9-6.7-2.5-7.2 2 -0.6 5.1-4.2 8.3-6.5 12.3 -0.2 0.3-1.1 0.2-2 0.4 -1-4.4 2.7-7.6 3-12.2 -1-0.8-2.2-2.2-3.7-2.9 -1.6-0.7-3.5-0.8-5.2-1.3 -2.2-0.7-4.3-1.6-5.3-4.5 1.7 0.3 3.1 0.7 4.5 0.8 1.5 0.2 3 0 4.5 0.2 1.2 0.2 2.3 0.8 3.4 1 1.3 0.3 2.7 0.3 4.9 0.6 -1-3.6-2.6-6.4-2.3-9 0.4-3.1 2.4-6 3.7-9.1 0.9-0.3 1.7-0.7 2.5-0.9 8.4-1.8 8.4-1.8 10.8 7.5 -1.5 1.8-3.1 3.9-5.2 6.4 0.9 1.8 1.9 3.9 3.1 6.2 2.2 0.5 4.4 1 6.9 1.5C519.9 733.7 519.9 733.7 516.9 740.8zM523.6 744.5c-0.8-1.6-0.9-2.5-0.2-4.8 0.7-2.7 1.9-4.9 5.5-5.9 0.7 2 1.4 3.8 2.1 6C528.3 741.6 525.7 743.2 523.6 744.5zM536.2 745.4c0-2.1-0.1-3.7 0-5.4 0.1-2 1.5-3.4 2.5-2.5 0.7 0.7 1.3 1.9 1.3 2.9C540.1 741.9 539.7 742.2 536.2 745.4zM540.1 679.4l-0.2-0.7 0.5 0.1L540.1 679.4zM587.1 709.3c-0.6 0.1-1.2-0.9-2.1-1.6 0.9-0.7 1.5-1.5 2.1-1.5 0.6 0 1.6 1 1.6 1.4C588.5 708.3 587.7 709.3 587.1 709.3zM588.7 667c-0.6-0.8-1.2-2.3-0.8-3.1 0.3-0.7 1.9-1.3 2.8-1.3 1.1 0 2.3 0.6 3.3 1.3 0.6 0.4 0.9 1.4 1.4 2.3 -0.6 0.7-1.1 1.6-1.8 1.9C591.8 668.8 589.9 668.5 588.7 667zM591.5 688.8c-0.7 0-1.4-0.3-2.1-0.5 0.2-0.5 0.3-1.3 0.5-1.4 0.8-0.1 1.6 0.1 2.5 0.1C591.9 687.8 591.7 688.8 591.5 688.8zM608 742.9c-3.8-0.8-5.2-3.5-5.3-7.6 -1.9-1-4-2-6.1-3.1 -2.6-1.4-4-3.6-3.8-6.5 0.1-0.9 1.2-2.2 2.1-2.5 2.9-1.1 5.1 0.1 6.9 2.5 1.6 2.1 3.6 3.8 5.5 5.7 2.4 2.5 5.8 4.2 7 7.9C613.1 742.3 611 743.5 608 742.9zM614.3 722.4c-0.6-0.4-1-1.1-1.3-1.8 -0.1-0.2 1.1-1.1 1.2-1 0.6 0.5 1.1 1.2 1.7 1.9C615.2 721.9 614.4 722.6 614.3 722.4zM647.8 696.9c-0.2 0.7-1.3 1.7-1.7 1.5 -1-0.3-2.2-1-2.5-1.9 -0.2-0.7 0.7-1.8 1-2.4C647 694.1 648.2 695.4 647.8 696.9zM651.3 716.4c-0.7 0-1.9-1.3-1.9-2 0-0.7 1.2-2 1.9-2.1 0.8 0 1.7 1.1 3 2C653 715.3 652.1 716.4 651.3 716.4zM657.1 703.2c-0.4 2.2-2.2 3.6-4.4 3.2 -1.9-0.3-3.1-1.9-2.8-3.7 0.4-2.4 2-4 4-3.8C656.1 699.1 657.5 700.9 657.1 703.2zM654.6 500.6c-0.8-0.1-1.2 0-1.4-0.2 -1.4-1.3-2.8-2.6-4.4-4.1l-23.8 71.8 32.5 108.7h-14.7c0 0 0 0.4 0 0.5 0.2 3.4-0.7 6.5-3.7 9.1 -3-1.6-3.1-3.9-2.9-6 0.2-1.4 0.9-2.6 2-3.6h-34.1l-21.3-84.6v84.6h-52v-199h52v78l13.8-45.8c-1.4 0.2-2.7 0.4-4.3 0.6 0.7-4.7 2.2-7.9 4.6-10.6 0.9-1 2.1-1.8 3.3-1.7l6-20.5h48.5l-5.4 16.7c2.4-2.6 5.9-0.9 8.4-2.5 0.7 1.3 1.4 2.7 2.3 4.3C657.9 497.9 656.1 499.4 654.6 500.6zM992.7 713c-0.6 0.2-1.6-1.2-2.9-2.2 1.3-1.1 2.2-2.4 3-2.3 0.8 0 2.1 1.5 2 2.2C994.8 711.6 993.6 712.8 992.7 713zM1021.3 691.7c0.1-0.7 0.5-1.3 0.9-2.4 0.9 0.8 1.5 1.3 2 1.7 -0.5 0.5-1 1.1-1.6 1.4C1022.3 692.6 1021.2 691.9 1021.3 691.7zM1031.7 723.8c-1 0.9-2.6 1.6-3.8 1.5 -1.7 0-3.3-0.9-5.3-1.5 1.5-3.5 3.9-4.8 7.1-4.7 1 0 2.4 0.8 2.8 1.7C1032.8 721.5 1032.4 723.2 1031.7 723.8zM1053.5 686.2c-1.9-1.6-3.5-2.9-5.6-4.6C1052.6 680.8 1054 682 1053.5 686.2zM1073.7 692.5c-0.4-0.2-0.6-0.9-0.8-1.4 0.4-0.3 0.8-0.7 1.1-1 0.3 0.6 0.7 1.2 1 1.8C1074.6 692.1 1074 692.6 1073.7 692.5zM1066.9 685.9c-1.2-3.2-2.3-6.2-3.6-9.5 1.1-1.9 2-3.9 3.1-5.7 10.3-1 10.3-1 17.3 3 0 1.9 0 3.9 0 5.5 1 0.8 1.4 1.4 1.8 1.6 2.7 1 5.6 1.9 10.1 3.4C1084.9 687 1076 684.8 1066.9 685.9zM1138.4 746.4c-0.7 0-1.3-0.8-2-1.2 0.5-0.6 1-1.1 1.6-1.8 0.9 0.7 1.5 1.2 2.2 1.6C1139.5 745.5 1139 746.4 1138.4 746.4zM1164.2 704.5c-0.8-0.1-1.6-1.2-2.1-2 -0.1-0.1 0.9-1 1.8-1.9 0.9 0.8 1.7 1.5 2.4 2.1C1165.6 703.3 1164.8 704.6 1164.2 704.5zM1173.8 707.8c-0.1-0.4-0.2-0.7-0.3-1.1 0.3 0.1 0.6 0.1 0.8 0.2 0.1 0.1 0.2 0.4 0.2 0.6C1174.3 707.6 1174 707.7 1173.8 707.8zM1181.7 457.8c-0.6 0-1.2-0.8-1.8-1.3 0.5-0.6 0.9-1.7 1.5-1.8 1-0.2 2.2 0.1 3.3 0.4 0.4 0.1 0.5 0.9 1 2C1184.3 457.3 1183 457.8 1181.7 457.8zM1205.4 598c-2.2 1.2-4.5 1.8-6.9 0.9 -2.6-0.9-3.5-3.1-3.7-5.6 1.3-2.2 3-4.2 5.5-4.1 1.9 0.1 4.1 0.9 5.7 2C1208.5 592.8 1208.1 596.6 1205.4 598zM1189.1 457c0.7-3.4 2.6-3.4 4.2-2.9 2.9 1 5.6 0.8 8.3-0.2 0.9 2.3-0.7 2.7-1.9 3.2C1196.4 458.6 1192.9 457.7 1189.1 457zM1211.2 643.7c0.4 0 1.2 0.5 1.2 0.8 0 0.7-0.4 1.4-0.6 2 -0.6-0.3-1.3-0.6-3.6-1.7C1209.8 644.2 1210.5 643.8 1211.2 643.7zM1180.2 403c1 0.1 1.8-0.1 2.1 0.2 4.1 3.3 6.9 8.3 12.6 9.5 0.4 0.1 0.7 0.9 1 1.3 2.2 2.7 2.2 2.7 5.8 3 -0.1 1.7-0.2 3.4-0.3 4.5 2.2 3.4 3.9 6.4 6 9.2 1.9 2.5 4.2 4.7 6.7 7.6 -2.7 1.5-4.8 2-7 0.8 -5.1-3-10.1-6.1-16.2-9.7 2.5-4.9 0.3-8.8-1.7-12.8 -1.9-3.8-4.2-7.2-9.8-6.6C1179.7 407.4 1180 405.2 1180.2 403zM1160.5 415.4c0.5-1.9 3.1-3.3 5.1-2.4 0.9 0.4 1.4 1.6 1.8 2.1 -0.6 2.6-2.2 3.7-4.2 3.4C1161.7 418.2 1160.2 416.5 1160.5 415.4zM1158.2 458.3c-2 1.3-3.9 1.7-6 0.3C1154.8 456.3 1154.8 456.3 1158.2 458.3zM1151 446.2c0.1-0.6 0.7-1 1.5-1.9 0.6 1.1 0.9 1.7 1.2 2.3 -0.7 0.3-1.3 0.7-2 0.9C1151.6 447.5 1150.9 446.5 1151 446.2zM1131 423.6c0.2-0.7 1-1.2 1.6-1.9 1.1 0.3 2 0.5 2.7 0.9 1.6 0.9 2.9 2.1 2.1 4.3 -0.5 1.3-2.5 2.2-3.6 1.7C1131.8 427.6 1130.5 425.4 1131 423.6zM1036.6 402.8c0.2-1.5 1.3-2.6 3-2.7 2.7-0.1 4.6 1.5 4.7 4 0.1 1.8-1.5 3.2-3.4 3.1C1038.3 407.3 1036.2 405.2 1036.6 402.8zM1033 515.1c0.2 0.1 0.4 0.4 0.5 0.6 -0.1 0.2-0.2 0.4-0.3 0.6 -0.3-0.3-0.6-0.6-0.9-0.9C1032.5 515.3 1032.8 515 1033 515.1zM1004.1 474.1c0.5 0.1 0.9 0.3 1.5 0.6 -0.3 0.3-0.7 0.8-1 0.8 -0.4 0-0.7-0.5-1-0.8C1003.8 474.5 1004 474.1 1004.1 474.1zM995 452.6c-2.9-0.9-2.9-0.9-4.6-5.1C992.5 449.9 993.5 451 995 452.6zM934.7 464.9c2.9 0 5.8 0 8.8 0 0 3-1.2 4.8-2.8 4.3 -2.2-0.7-4.2-1.8-6.3-2.8C934.5 465.8 934.6 464.9 934.7 464.9zM905.3 464.7c0.8 0 1.6 0.3 2.4 0.5 -2.2 3.2-2.2 3.2-4.9 0.1C903.7 465.1 904.5 464.7 905.3 464.7zM869.7 467.2c-2.4 0.4-4.9 4.3-7.5-0.7C865 465.5 867.3 467.4 869.7 467.2zM853.3 466.1c0.6-0.1 1.3 0.7 2.7 1.5 -1.7 0.7-2.6 1.3-3.5 1.3 -0.6 0-1.2-1-1.7-1.5C851.6 467 852.4 466.3 853.3 466.1zM801.7 404.1c0.2 0 0.3 0.3 0.5 0.5 -0.1 0.2-0.2 0.4-0.3 0.6 -0.3-0.3-0.5-0.6-0.8-0.9C801.3 404.2 801.5 404 801.7 404.1zM796.4 466.4c4.7-0.3 9.4-0.7 14.1-0.8 2-0.1 4.1 0.3 4.8 2.7 0.1 0 0.2 0 0.2 0l0 0c0 0 0 0 0 0l0 0v0c0 0.1 0 0.1 0 0.2 0.7-0.3 1.4-0.6 2.1-0.9 0 0 0 0 0 0 0.5-0.2 1-0.1 1.5 0 1.8-0.6 3.5-2.5 5.4 0.1 -1.8 1.7-3.6 0.3-5.4-0.1 -0.5 0.2-1 0.2-1.5 0 0 0 0 0-0.1 0 0 0 0 0 0 0l0 0c0.3 0.5 0.7 1 0.8 1.5 0.4 1.2 0.2 2.5-1.4 2.5 -0.6 0-1.3-0.9-1.7-1.6 -0.2-0.4 0-1 0.1-1.5 0 0-0.1 0-0.1 0.1 0-0.1 0-0.1-0.1-0.2 -5.5 0.6-11 1.2-16.4 1.7 -1.8 0.2-3.6-0.1-3.8-2.6C795.5 467 795.9 466.4 796.4 466.4zM735.1 438.3c0.7-0.3 1.8 0.4 3.8 0.9 -1.4 1.5-2 2.5-2.8 2.9 -1.2 0.6-2.5-0.2-2.6-1.4C733.4 439.9 734.3 438.7 735.1 438.3zM702.9 520.5c0.1 0.2 0.4 0.5 0.4 0.7 0 0.2-0.3 0.4-0.4 0.6 -0.2-0.4-0.4-0.8-0.6-1.2C702.5 520.6 702.7 520.5 702.9 520.5zM702 542.5c1.2-0.9 3.2 0.9 3.2 3.1 0 0.7-0.6 1.4-0.9 2 -2.4 0.1-2.8-1.5-3-2.9C701.1 544.1 701.5 542.9 702 542.5zM697.8 540.9c-0.4 0.9-1.4 1.6-2.5 2.8 -1-1.5-1.9-2.5-2.2-3.7 -0.1-0.5 1.4-1.6 2.3-1.8C696.8 538 698.3 539.7 697.8 540.9zM703.7 650.1c-1.7-0.1-3.5-0.9-3.3-3 0.1-0.8 1.2-1.5 2.4-2.8 1.3 1.7 2.3 2.8 3.1 4.1C706 648.5 704.4 650.1 703.7 650.1zM730.3 728.7c-0.6 0.1-1.3-0.9-2-1.4 0.8-0.7 1.5-1.6 2.4-2 0.5-0.2 1.3 0.7 2.7 1.6C732.1 727.8 731.2 728.6 730.3 728.7zM744.8 701.3c-1.2-0.8-2.1-1.1-2.5-1.7 -0.6-1.1 0.7-2.9 2.3-2.9 0.6 0 1.9 0.9 1.9 1.1C746.2 698.9 745.5 699.9 744.8 701.3zM825.7 676.9h-45l-27-89.8v89.8h-43v-199h43.1l28.9 90.3v-90.3h43v7.5c0 0.1 0.2 0.2 0.3 0.3 -0.1 0-0.3 0-0.3 0V676.9zM830.9 541.8c-0.4-0.4-0.8-0.7-1.2-1.1 0.3-0.4 0.5-0.8 0.8-1.1 0.2 0.5 0.5 0.9 0.7 1.4C831.3 541.2 831 541.5 830.9 541.8zM836.8 538.4c-0.5-0.4-0.8-1.1-1.2-1.6 0.5-0.2 1.1-0.6 1.4-0.4 0.4 0.2 0.7 0.8 1 1.2C837.6 537.8 836.9 538.4 836.8 538.4zM901.6 712.5c-1-0.9-2-1.5-2.3-2.3 -0.5-1.6 1.1-2.1 2-1.9 0.8 0.2 1.6 1.2 2 2.1C903.5 710.7 902.4 711.5 901.6 712.5zM938.3 697c-1 0.6-2.4-0.6-2.1-1.9 0.3-1 1-1.9 1.6-2.9 0.8 0.5 1.7 1 3 1.8C939.7 695.4 939.2 696.4 938.3 697zM960.3 688.2c-0.3 0.5-0.9 0.7-1.5 1 -1.6 0.7-2.9 0.3-3.8-1.2 -1-1.6 0.1-2.8 1.3-3.7 0.7-0.5 1.6-0.6 2.7-1 0.7 0.9 1.7 1.6 2.1 2.6C961.4 686.5 960.7 687.5 960.3 688.2zM975.5 605.3c-1.4 2.3-3.4 3.7-5.9 3.4 -1.5-0.2-3.2-0.1-4.7-0.3 -0.2 13.1-0.6 22.8-1.3 29.1 -0.9 8.3-3.9 15.9-8.8 22.8 -5 6.9-11.6 12.2-20.1 15.8 -8.4 3.7-18.3 5.5-29.5 5.5 -10.6 0-20.2-1.7-28.7-5.2s-15.3-8.7-20.4-15.7c-5.2-7-8.5-14.5-9.5-22.7 -1-8.2-1.8-22.5-1.8-43V561.1c0-20 0.8-34.1 1.7-42.4 0.9-8.3 4-15.9 9-22.8 5-6.9 11.7-12.2 20.2-15.8 8.4-3.7 18.3-5.5 29.5-5.5 10.6 0 20.2 1.7 28.7 5.2 8.5 3.5 15.3 8.7 20.5 15.7 5.2 7 8.1 14.5 9.1 22.7 1 8.2 1.4 22.5 1.4 43v30.2c0 0.4 0.6 0.8 0.9 1.2 -0.2-0.1 0.4 0.2 0.9 0.4 4.9 2 9.2 1.7 12.9-2.5 2-2.3 4.5-2.8 7.1-2.8l-3.3-28.1c-0.5-0.3-1-0.8-1.5-1.2 0.3-0.4 0.7-0.8 1.2-1.4l-2.4-20.7c-0.9 2.4-3.8 4.2-7.1 4.2 -4.3 0-6.7-2.2-6.7-6.5 0-4.9 3-7.9 7.7-7.8 2.3 0.1 4.2 0.9 5.3 3l-5.9-51.4h50.2l4.6 58.2c1.4 2 1.8 4.6 1.6 7.6 -0.3 0-0.7 0.2-1 0.2l0.3 4.2 1.1 13.7c4.3 0 5.9 1.6 5.5 5.7 -1.4-1.6-3.5-2-5.3-3l3.5 45c0.2 0.2 0.5 0 0.7 0.2 2.1-34 6.7-77.8 14-131.8h53.7c0.7 6 2.6 28.1 5.6 66l5.7 75.8c0.9-14.7 2-29.2 3.2-43.7 -0.3-0.2-0.7-0.8-0.6-1.1 0.1-0.8 0.4-1.5 0.9-2 0.3-3.6 0.6-7.2 1-10.7 0-0.1-0.1-0.1-0.1-0.2 -0.7-1-0.3-3.3 0.5-4.3 2.6-26.8 5.8-53.8 9.5-79.8h50.2l-5.5 47.8c0.1 0 0.1 0.1 0.2 0.1 0.5 0.9 1.2 1.9 1.6 2.9 0.1 0.2-0.5 0.8-0.8 1.1 -0.1 0.1-0.6-0.1-0.7-0.3 -0.2-0.3-0.4-0.7-0.5-1l-2.3 19.6c0.6 0.3 1.2 0.9 1.5 2 -0.5 0.4-1 1.1-1.7 1.2 -0.1 0-0.1-0.3-0.2-0.3l-14.6 125.8h-64.5c-5.9-31-11.1-65.3-15.6-104.2 -2.1 16.7-6.9 51.2-14.4 104.2h-64.2l-8.9-76c-1.9 0.2-3.8 0.6-5.7 0.7C979.9 601.7 977 602.7 975.5 605.3zM967.5 554.1c0.9-1.4 2.3-2.7 3.8-3.3 3.3-1.2 5.1-0.1 8.5 5.3 -2.4 1.3-4.2 2.4-6.1 3.1 -1 0.3-2.3 0.2-3.3-0.3C968.3 558 966.7 555.4 967.5 554.1zM987.3 733.1c2.4 3.3 2.1 6.4 3.7 11C986.1 740.3 985.5 737.4 987.3 733.1z" class="a"/><path d="M168.7 587.8v55.6c7-0.2 12-1.4 14-3.4 2-2 3-7.1 3-15.1v-18.5c0-8.5-0.9-13.7-2.7-15.5C181.2 589.1 175.7 588.1 168.7 587.8z" class="a"/><polygon points="745.8 199.6 768.3 205.2 792.8 106.7 771.4 101.3 760.3 145.7 757 97.8 735.6 92.4 711.1 190.9 732.5 196.2 743.7 151.5 " class="a"/><path d="M179.8 513.8c-1.8-0.7-6.1-1-11.1-1.1v44.2c2-0.1 4.3-0.1 5.5-0.1 5.1 0 8.5-1.2 9.9-3.7 1.4-2.5 2.2-9.6 2.2-21.4 0-6.2-0.7-10.6-1.8-13.1C183.3 516 181.7 514.4 179.8 513.8z" class="a"/><path d="M1034.9 614.6c0 0 0 0-0.1 0l0 0.5C1034.9 614.9 1034.9 614.8 1034.9 614.6z" class="a"/></svg>