<?xml version="1.0" encoding="utf-8"?>
<!-- Generator: Adobe Illustrator 24.1.1, SVG Export Plug-In . SVG Version: 6.00 Build 0)  -->
<svg version="1.1" id="Layer_1" xmlns="http://www.w3.org/2000/svg" xmlns:xlink="http://www.w3.org/1999/xlink" x="0px" y="0px"
	 viewBox="0 0 24 24" style="enable-background:new 0 0 24 24;" xml:space="preserve">
<style type="text/css">
	.st0{clip-path:url(#SVGID_2_);}
	.st1{fill:none;stroke:#FFFFFF;stroke-width:0.2275;stroke-linecap:round;stroke-miterlimit:10;}
	.st2{fill:#FF9933;}
	.st3{fill:#FFFFFF;}
	.st4{clip-path:url(#SVGID_4_);}
	.st5{fill:none;stroke:#FFFFFF;stroke-width:0.8342;stroke-miterlimit:10;}
	.st6{fill:none;stroke:#FFFFFF;stroke-width:7.583542e-02;stroke-miterlimit:10;}
</style>
<g>
	<defs>
		<circle id="SVGID_1_" cx="12" cy="12" r="7.8"/>
	</defs>
	<clipPath id="SVGID_2_">
		<use xlink:href="#SVGID_1_"  style="overflow:visible;"/>
	</clipPath>
	<g class="st0">
		<g>
			<line class="st1" x1="12" y1="12.2" x2="17.2" y2="7"/>
			<line class="st1" x1="12" y1="12.2" x2="13.9" y2="5.1"/>
			<line class="st1" x1="12" y1="12.2" x2="10.1" y2="5.1"/>
			<line class="st1" x1="12" y1="12.2" x2="6.8" y2="7"/>
			<line class="st1" x1="12" y1="12.2" x2="5" y2="10.3"/>
			<line class="st1" x1="12" y1="12.2" x2="19" y2="10.3"/>
		</g>
		<circle class="st2" cx="12" cy="12.2" r="6.3"/>
		<circle class="st3" cx="12" cy="12.2" r="5.9"/>
		<g>
			<defs>
				<rect id="SVGID_3_" x="5.9" y="12.2" width="17.4" height="6.8"/>
			</defs>
			<clipPath id="SVGID_4_">
				<use xlink:href="#SVGID_3_"  style="overflow:visible;"/>
			</clipPath>
			<g class="st4">
				<circle class="st3" cx="12" cy="12.2" r="5.9"/>
				<circle class="st2" cx="12" cy="12.2" r="4.5"/>
				<circle class="st3" cx="12" cy="12.2" r="4"/>
				<circle class="st2" cx="12" cy="12.2" r="3.6"/>
				<circle class="st3" cx="12" cy="12.2" r="1.3"/>
				<line class="st5" x1="12" y1="12.2" x2="9.7" y2="15.3"/>
				<line class="st5" x1="12" y1="12.2" x2="14.3" y2="15.3"/>
				<line class="st5" x1="12" y1="12.2" x2="15.7" y2="11"/>
				<line class="st5" x1="12" y1="12.2" x2="12" y2="8.3"/>
				<line class="st5" x1="12" y1="12.2" x2="8.3" y2="11"/>
				<path class="st6" d="M14.3,15.3"/>
				<path class="st6" d="M12,12.2"/>
			</g>
		</g>
	</g>
</g>
</svg>
